<?xml version="1.0" standalone="no"?>
<!DOCTYPE svg PUBLIC "-//W3C//DTD SVG 20010904//EN"
 "http://www.w3.org/TR/2001/REC-SVG-20010904/DTD/svg10.dtd">
<svg version="1.0" xmlns="http://www.w3.org/2000/svg"
 width="512.000000pt" height="512.000000pt" viewBox="0 0 512.000000 512.000000"
 preserveAspectRatio="xMidYMid meet">
<metadata>
Created by potrace 1.14, written by Peter Selinger 2001-2017
</metadata>
<g transform="translate(0.000000,512.000000) scale(0.100000,-0.100000)"
fill="#000000" stroke="none">
<path d="M481 5115 c1 -19 18 -51 18 -35 0 8 -4 22 -9 30 -5 8 -9 11 -9 5z"/>
<path d="M1820 5109 c0 -38 93 -351 139 -468 12 -29 20 -56 17 -58 -11 -12
-278 -2 -355 12 -93 18 -191 52 -191 66 0 5 -4 9 -9 9 -15 0 2 -46 35 -93 23
-32 40 -46 65 -50 19 -4 55 -11 81 -16 26 -6 131 -11 233 -13 l186 -2 34 -61
c18 -33 47 -85 65 -115 17 -30 38 -70 48 -89 l17 -33 -30 -24 c-17 -14 -59
-38 -94 -55 -50 -24 -66 -27 -72 -17 -6 10 -13 8 -31 -9 -28 -26 -273 -74
-379 -75 -166 0 -399 124 -584 312 -54 55 -101 98 -104 95 -3 -3 41 -52 97
-108 56 -56 102 -108 102 -115 0 -8 18 -44 40 -82 40 -68 140 -265 140 -275 0
-34 -175 123 -299 269 -54 63 -71 91 -71 114 0 32 -55 123 -79 130 -11 4 -10
-1 2 -19 10 -13 17 -32 17 -43 0 -21 -79 80 -117 150 -53 97 -158 385 -198
541 -10 40 -20 71 -23 69 -8 -9 22 -140 60 -256 62 -193 122 -325 204 -447 48
-73 74 -121 74 -140 0 -33 -22 -110 -43 -150 l-15 -27 -17 39 c-65 151 -120
326 -180 570 -56 224 -65 258 -71 253 -5 -6 58 -291 92 -413 38 -136 62 -208
116 -347 49 -127 49 -127 33 -163 -10 -19 -20 -35 -24 -35 -11 1 -100 147
-137 226 -100 218 -173 425 -230 656 -21 86 -40 155 -42 153 -5 -5 44 -247 63
-309 8 -28 15 -88 15 -136 0 -204 47 -513 111 -730 l31 -104 -44 -41 c-23 -22
-56 -51 -72 -63 -16 -12 -27 -24 -25 -27 3 -2 37 20 76 50 l72 54 17 -47 c10
-26 44 -103 76 -171 32 -68 55 -127 52 -130 -3 -3 -63 -6 -132 -6 -111 1 -138
4 -211 28 -113 37 -203 86 -286 154 -66 55 -68 56 -61 28 11 -42 45 -86 158
-198 54 -54 98 -100 98 -103 0 -2 -9 -4 -21 -4 -22 0 -116 60 -192 123 -26 21
-47 34 -47 29 0 -30 207 -172 251 -172 51 0 34 31 -77 140 -58 58 -115 118
-126 133 -18 25 -12 22 38 -16 79 -60 183 -110 281 -138 l82 -22 26 -111 c64
-273 108 -496 99 -505 -8 -9 -86 193 -109 284 -12 47 -13 48 -14 15 -2 -69 65
-246 135 -355 74 -117 192 -244 262 -282 17 -10 32 -20 32 -24 0 -31 -240 -51
-352 -30 -108 22 -211 83 -319 191 -75 75 -105 140 -119 250 -6 56 -7 59 -8
20 -3 -148 46 -334 119 -453 17 -27 29 -53 27 -59 -2 -5 -31 15 -64 45 -51 47
-85 91 -151 193 -9 15 -12 -248 -12 -1176 l-1 -1196 108 -52 107 -53 535 3
c438 2 534 5 532 16 -1 8 2 11 8 7 6 -3 8 -10 5 -15 -3 -5 120 -8 292 -7 l297
2 8 35 c13 57 41 154 47 165 3 6 12 -37 21 -95 l15 -105 94 -3 c91 -3 96 -2
175 36 44 21 136 61 203 88 67 26 120 50 119 52 -2 2 -40 -11 -85 -28 l-81
-32 -65 47 c-83 59 -174 177 -162 210 10 25 100 47 217 52 139 6 264 -8 384
-43 86 -25 89 -26 99 -8 24 43 100 112 152 139 122 61 226 38 337 -76 37 -38
70 -69 74 -69 3 0 29 20 57 45 29 25 76 57 105 72 48 24 60 25 143 21 78 -5
101 -11 157 -39 65 -33 79 -48 201 -199 39 -48 41 -48 157 7 42 19 92 39 112
44 73 16 202 -29 270 -94 43 -41 69 -92 86 -170 11 -49 14 -55 15 -28 5 156
-153 305 -324 305 -63 0 -79 -4 -168 -47 -54 -26 -101 -47 -106 -47 -5 0 -20
17 -34 38 -14 20 -50 67 -80 104 -67 80 -147 124 -253 139 -116 16 -174 -2
-277 -85 -30 -25 -59 -46 -62 -46 -4 0 -30 25 -58 57 -141 154 -328 151 -470
-9 l-54 -60 -78 22 c-43 12 -105 26 -138 30 -32 5 -61 11 -64 14 -3 3 11 51
32 108 20 57 61 182 91 278 96 305 201 594 284 780 91 205 131 303 126 308 -3
2 -9 -4 -12 -14 -4 -10 -29 -68 -57 -129 -105 -233 -126 -285 -190 -455 -36
-96 -93 -259 -127 -362 l-62 -188 -41 -11 c-88 -22 -114 -28 -187 -39 -124
-19 -392 -29 -505 -19 -208 18 -428 85 -660 202 -327 164 -651 528 -722 813
-27 107 -24 332 6 452 l23 92 91 0 c51 0 112 5 137 11 49 11 110 38 110 48 0
3 -23 20 -51 36 -57 34 -178 156 -225 227 -25 38 -34 69 -53 178 -12 73 -40
210 -62 304 -22 94 -43 186 -46 204 l-6 34 64 -2 c110 -4 155 0 173 13 17 12
14 21 -42 138 -33 68 -68 147 -78 176 l-18 52 98 93 97 93 71 -78 c38 -42 83
-84 99 -93 l29 -14 -18 37 c-9 21 -33 67 -54 103 -73 133 -73 130 -33 231 19
49 35 93 35 99 0 5 4 10 8 10 9 0 19 -11 132 -139 124 -142 260 -240 260 -188
0 17 -114 246 -152 306 -15 25 -28 48 -28 52 0 4 30 -13 68 -38 135 -91 265
-143 377 -150 62 -4 312 28 337 43 21 13 3 -13 -47 -69 -30 -33 -55 -68 -55
-76 1 -10 11 -3 28 19 62 80 135 139 198 160 61 21 134 62 166 93 21 22 13 53
-40 144 -21 37 -53 95 -71 128 l-31 60 87 22 86 22 81 -75 c45 -41 107 -91
139 -110 56 -35 58 -35 83 -19 33 21 30 36 -38 177 -28 59 -50 110 -47 112 2
2 45 24 94 49 50 24 104 52 120 61 17 9 35 16 41 16 6 0 51 -32 100 -71 212
-169 520 -348 602 -349 38 0 -30 238 -146 505 -86 200 -123 275 -133 275 -5 0
-3 -12 5 -27 39 -77 182 -421 211 -508 36 -108 61 -212 53 -220 -10 -10 -123
36 -202 82 -170 99 -444 292 -453 319 -2 6 24 22 57 37 33 14 60 30 60 36 0 6
-28 -3 -62 -19 -35 -17 -70 -30 -79 -30 -10 0 -90 75 -178 166 -89 92 -164
164 -167 161 -3 -3 68 -80 157 -171 89 -92 160 -168 158 -170 -2 -2 -25 -11
-51 -21 -29 -11 -48 -24 -49 -34 0 -9 -3 -11 -5 -4 -4 8 -24 5 -70 -13 -35
-13 -71 -24 -80 -24 -18 0 -135 237 -179 363 -15 42 -32 77 -36 77 -5 0 -9 -2
-9 -5 0 -12 93 -231 139 -327 28 -59 51 -111 51 -116 0 -5 -42 -21 -92 -37
l-93 -27 -47 53 c-73 82 -195 265 -270 402 -28 51 -58 75 -58 46z m85 -124
c62 -108 143 -228 212 -313 24 -30 43 -57 43 -62 0 -8 -24 -13 -111 -25 l-45
-7 -42 109 c-35 91 -122 375 -122 399 0 12 5 4 65 -101z m635 -285 c-8 -5 -19
-10 -25 -10 -5 0 -3 5 5 10 8 5 20 10 25 10 6 0 3 -5 -5 -10z m-70 -30 c-39
-21 -50 -24 -50 -12 0 9 47 30 70 31 8 0 -1 -8 -20 -19z m-75 -29 c-12 -11
-151 -61 -171 -61 -35 0 -7 17 69 41 89 29 117 34 102 20z m-886 -36 c79 -27
215 -45 352 -45 119 0 138 -2 143 -17 4 -9 1 -20 -6 -25 -7 -5 -92 -7 -189 -5
-229 6 -318 29 -350 89 -12 22 -4 22 50 3z m955 -86 c74 -160 72 -189 -10
-147 -49 24 -219 176 -209 187 8 8 146 60 161 60 6 1 32 -44 58 -100z m-273
56 c1 -13 -135 -49 -155 -42 -9 4 -16 13 -16 22 0 11 12 15 43 16 23 1 56 5
72 9 37 10 56 8 56 -5z m-1761 -52 c56 -173 157 -397 235 -517 30 -47 55 -89
55 -92 0 -24 -153 -205 -164 -193 -15 16 -85 303 -105 429 -8 52 -41 371 -41
403 0 18 9 4 20 -30z m440 -380 c-21 -79 -51 -153 -61 -153 -16 0 -10 38 15
100 13 32 27 73 31 90 5 22 10 29 17 22 8 -8 7 -26 -2 -59z m-87 -204 c-17
-29 -33 -38 -33 -19 0 18 32 60 41 54 5 -3 2 -19 -8 -35z m95 -131 c23 -43 39
-78 35 -78 -8 0 -106 106 -130 140 -10 14 -9 22 4 40 l17 23 15 -23 c9 -13 35
-59 59 -102z m-193 3 l-57 -56 53 73 c37 50 55 68 58 56 2 -10 -20 -39 -54
-73z m-535 -1315 c0 -12 -5 -7 -19 24 -11 24 -11 24 3 6 9 -11 16 -24 16 -30z
m105 -1535 c100 -108 295 -301 395 -391 51 -47 114 -104 139 -127 25 -24 92
-80 148 -125 56 -46 105 -91 108 -101 4 -9 10 -15 14 -13 4 3 18 -2 30 -11 18
-12 20 -17 10 -25 -11 -8 -11 -9 1 -5 19 5 73 -39 77 -62 1 -10 -4 -18 -13
-18 -9 0 -13 6 -9 15 3 9 0 19 -7 24 -19 11 -28 10 -23 -5 8 -21 -8 -34 -50
-40 -22 -3 -34 -3 -27 0 37 14 -12 36 -106 48 -55 6 -132 32 -143 47 -3 4 -40
11 -82 14 -55 5 -77 11 -77 20 0 8 -11 14 -25 14 -26 0 -34 14 -13 24 7 3 1 3
-14 0 -16 -4 -28 -2 -28 2 0 5 -48 10 -108 12 -59 1 -130 8 -158 14 -55 11
-119 4 -94 -12 9 -6 2 -11 -26 -16 -21 -4 -44 -14 -51 -23 -9 -13 -16 -14 -30
-5 -17 11 -19 9 -15 -17 3 -18 0 -29 -8 -29 -7 0 -10 6 -7 14 3 8 -2 16 -12
19 -11 3 -17 -2 -18 -15 -1 -10 3 -16 8 -12 5 3 8 0 7 -8 -2 -7 6 -13 17 -14
49 -2 55 -5 55 -21 0 -11 -3 -14 -8 -7 -16 23 -43 24 -52 1 -9 -22 -9 -22 -9
-1 -1 20 -31 44 -31 25 0 -5 6 -11 13 -14 6 -2 10 -7 7 -10 -3 -3 -11 -2 -18
2 -10 6 -10 18 -3 52 17 74 61 460 92 795 l12 131 36 -41 c20 -23 63 -70 96
-105z m2362 -303 c-13 -35 -35 -96 -48 -135 l-24 -73 -82 0 c-76 0 -82 2 -80
20 1 15 11 21 37 26 55 9 58 11 62 41 2 15 9 29 16 29 6 1 16 2 21 3 5 0 12
12 15 26 3 13 15 29 26 35 11 6 17 16 14 25 -4 8 -1 15 6 15 7 0 9 8 5 19 -3
11 0 23 6 27 9 5 10 2 6 -10 -4 -10 -3 -15 3 -11 6 3 10 12 10 20 0 15 23 27
28 14 2 -4 -8 -36 -21 -71z m-257 -198 c0 -5 -17 -10 -37 -9 -34 1 -35 2 -13
9 36 11 50 11 50 0z m-130 -24 c0 -2 -7 -7 -16 -10 -8 -3 -12 -2 -9 4 6 10 25
14 25 6z m-45 -26 c-3 -5 -11 -10 -16 -10 -6 0 -7 5 -4 10 3 6 11 10 16 10 6
0 7 -4 4 -10z m9 -162 c-4 -6 -3 -8 3 -5 6 4 26 -8 45 -26 32 -30 67 -59 113
-92 17 -12 18 -14 3 -15 -9 0 -32 -9 -50 -20 -19 -11 -44 -21 -56 -23 -12 -2
-25 -6 -28 -10 -13 -13 -20 -7 -22 21 -1 15 -11 34 -21 42 -19 15 -51 109 -51
148 0 28 17 37 38 20 16 -12 16 -11 2 7 -8 11 -21 24 -27 28 -7 4 -13 20 -13
35 0 23 6 17 36 -36 19 -34 32 -67 28 -74z m-1677 -14 c-3 -3 -12 -4 -19 -1
-8 3 -5 6 6 6 11 1 17 -2 13 -5z m-417 -124 c12 -12 15 -20 8 -20 -17 0 -32
12 -35 28 -4 17 4 15 27 -8z m1121 -52 c-11 -11 -13 -10 -8 4 3 9 0 19 -9 22
-8 3 -14 11 -14 18 0 7 9 3 22 -10 19 -18 20 -24 9 -34z m40 -15 c13 -16 12
-17 -3 -4 -17 13 -22 21 -14 21 2 0 10 -8 17 -17z m-13 -24 c3 -12 2 -12 -6 0
-6 8 -15 10 -22 6 -9 -5 -11 -4 -6 4 10 15 28 10 34 -10z"/>
<path d="M71 254 c0 -11 3 -14 6 -6 3 7 2 16 -1 19 -3 4 -6 -2 -5 -13z"/>
<path d="M858 163 c7 -3 16 -2 19 1 4 3 -2 6 -13 5 -11 0 -14 -3 -6 -6z"/>
<path d="M3195 5078 c46 -55 192 -238 428 -540 111 -143 187 -248 187 -261 0
-44 -31 -181 -51 -226 -67 -152 -168 -267 -374 -426 -16 -13 -13 -12 15 1 101
49 221 171 314 319 61 96 77 142 102 285 22 126 14 432 -14 566 -22 106 -93
324 -106 324 -4 0 -5 -8 0 -17 26 -61 77 -233 94 -319 20 -103 38 -408 26
-439 -5 -13 -21 2 -74 70 -73 94 -404 516 -455 580 -54 67 -109 125 -119 125
-5 0 7 -19 27 -42z"/>
<path d="M4611 4987 c-1 -187 -53 -739 -91 -982 -21 -133 -53 -303 -59 -313
-3 -6 -53 -39 -111 -75 -194 -118 -357 -162 -665 -177 -194 -10 -272 -4 -358
26 -58 20 -99 53 -92 73 5 13 4 13 -6 4 -10 -10 -7 -19 16 -43 16 -16 34 -30
39 -30 6 0 24 -7 39 -15 56 -29 142 -38 329 -32 101 3 227 12 281 21 78 12
108 13 143 5 27 -7 99 -10 184 -7 77 2 140 1 140 -2 0 -10 -59 -219 -76 -269
-21 -62 -33 -81 -51 -81 -35 0 -230 -73 -287 -107 -175 -106 -470 -392 -631
-613 -80 -109 -235 -384 -235 -415 0 -6 28 42 61 105 116 220 303 471 473 634
228 221 363 311 541 360 202 56 538 60 829 11 87 -15 121 -14 77 3 l-22 8 20
18 c12 11 21 24 21 29 0 6 -13 -2 -29 -17 l-30 -28 -81 11 c-166 25 -294 30
-473 20 -99 -6 -181 -8 -185 -5 -3 3 15 72 41 154 106 337 186 757 217 1147 6
72 19 216 31 320 17 154 19 210 11 295 l-9 105 -2 -138z m-177 -1416 c-13 -52
-27 -97 -30 -100 -10 -11 -324 -13 -324 -3 0 5 15 13 34 16 44 8 232 104 294
149 26 20 48 35 48 34 1 -1 -9 -44 -22 -96z"/>
<path d="M1256 4768 c-10 -22 8 -105 34 -161 27 -58 126 -177 146 -177 10 0
-6 23 -43 63 -68 73 -111 156 -122 236 -5 38 -10 51 -15 39z"/>
<path d="M829 4428 c12 -18 32 -50 44 -70 12 -21 25 -38 30 -38 9 0 -28 74
-56 112 -29 39 -44 35 -18 -4z"/>
<path d="M2635 4193 c-174 -28 -390 -103 -490 -168 -111 -73 -266 -248 -299
-339 -6 -18 8 -46 24 -46 5 0 31 31 60 70 l52 70 30 -16 c54 -28 131 -5 215
64 77 62 105 141 67 183 -15 17 -14 19 17 38 157 96 568 118 869 47 36 -8 95
-22 132 -31 37 -9 92 -24 122 -34 97 -32 50 -4 -72 42 -150 58 -164 62 -307
92 -118 25 -347 40 -420 28z"/>
<path d="M2793 3920 c-29 -4 -61 -11 -70 -15 -10 -3 -55 -13 -100 -21 -147
-25 -343 -100 -451 -171 -65 -43 -178 -146 -194 -177 -6 -12 17 8 52 43 162
161 323 235 694 316 45 10 153 21 245 25 l166 7 -145 0 c-80 0 -169 -3 -197
-7z"/>
<path d="M3191 3916 c2 -2 29 -6 59 -9 36 -4 46 -3 30 3 -25 8 -97 13 -89 6z"/>
<path d="M852 3418 c-9 -3 19 -6 63 -6 83 0 84 5 2 10 -26 2 -55 0 -65 -4z"/>
<path d="M761 3290 c-40 -11 -80 -25 -88 -31 -25 -21 -81 -133 -99 -196 -14
-51 -15 -68 -5 -89 13 -30 35 -27 39 4 2 15 10 22 26 22 35 0 87 40 124 94 25
38 32 59 32 97 0 47 1 48 38 58 20 6 92 11 160 11 67 0 122 3 122 8 0 23 -52
35 -160 39 -92 2 -130 -1 -189 -17z"/>
<path d="M1032 3134 c-95 -25 -194 -78 -258 -137 -62 -57 -121 -133 -112 -143
3 -3 15 11 27 30 61 98 204 195 350 237 63 18 87 30 60 28 -8 0 -38 -7 -67
-15z"/>
<path d="M1140 3100 c-18 -4 -5 -8 45 -13 39 -3 86 -8 105 -11 28 -5 25 -3
-10 7 -64 19 -111 25 -140 17z"/>
<path d="M1030 3075 c-32 -18 -26 -18 30 -1 32 11 38 15 20 15 -14 0 -36 -6
-50 -14z"/>
<path d="M935 3019 c-19 -17 -35 -38 -35 -48 0 -10 7 -6 20 14 10 16 30 37 42
47 13 10 20 18 16 18 -4 0 -23 -14 -43 -31z"/>
<path d="M887 2930 c-4 -14 -6 -43 -6 -65 1 -38 2 -37 10 14 10 58 7 92 -4 51z"/>
<path d="M1237 2913 c-12 -12 -7 -67 8 -87 22 -30 28 -13 8 22 -15 26 -16 35
-5 52 11 19 4 28 -11 13z"/>
<path d="M1330 2913 c8 -3 33 -14 54 -24 22 -10 42 -17 44 -14 7 6 -79 45 -98
44 -13 -1 -13 -1 0 -6z"/>
<path d="M2986 2859 c27 -17 64 -45 83 -62 36 -35 81 -119 81 -154 0 -12 5
-25 10 -28 28 -17 0 85 -40 148 -29 46 -137 127 -169 127 -8 0 7 -14 35 -31z"/>
<path d="M885 2793 c9 -38 47 -125 52 -120 2 2 -6 24 -17 48 -11 24 -20 56
-20 72 0 15 -5 27 -11 27 -7 0 -9 -10 -4 -27z"/>
<path d="M985 2764 c-11 -12 -14 -25 -9 -48 10 -50 22 -52 17 -3 -3 27 -1 47
6 51 6 4 32 -12 57 -36 26 -24 42 -34 36 -23 -12 24 -38 48 -69 64 -17 9 -25
8 -38 -5z"/>
<path d="M2520 2661 c-33 -27 -97 -91 -142 -142 -231 -265 -369 -377 -623
-505 -141 -71 -192 -83 -341 -84 -74 0 -83 -2 -105 -26 -49 -52 -19 -161 69
-256 50 -53 168 -118 264 -145 86 -23 332 -23 438 1 186 42 331 99 424 167
l40 29 14 -30 c24 -49 77 -90 118 -90 57 0 112 37 142 95 22 42 26 63 26 135
1 79 -2 90 -38 157 -31 58 -36 75 -27 91 27 50 51 190 51 293 0 171 -50 293
-140 340 -60 33 -101 25 -170 -30z m235 -608 c-16 -24 -16 -27 -2 -38 8 -6 28
-38 43 -71 37 -79 40 -195 6 -265 -27 -56 -87 -94 -131 -84 -37 8 -87 57 -103
101 -11 30 -38 48 -38 25 0 -12 -115 -86 -180 -114 -98 -43 -260 -85 -396
-101 l-51 -6 -7 85 c-6 67 -4 92 9 118 18 40 101 129 170 183 28 21 52 42 55
45 16 18 105 71 146 88 123 48 208 65 349 70 77 4 142 2 143 -2 2 -4 -4 -19
-13 -34z"/>
<path d="M4806 19 c-22 -5 -41 -10 -42 -12 -1 -1 61 -2 139 -3 79 -1 128 2
110 6 -61 14 -168 18 -207 9z"/>
</g>
</svg>
